<?xml version="1.0" encoding="UTF-8"?>
<svg version="1.1" xmlns="http://www.w3.org/2000/svg" width="890" height="1000">
<path d="M0 0 C5.34457577 3.14148059 10.71721758 6.23396529 16.08984375 9.32714844 C17.16782227 9.94847656 18.24580078 10.56980469 19.35644531 11.20996094 C22.64224409 13.10377054 25.92847978 14.99681981 29.21484375 16.88964844 C42.20461783 24.37129576 55.19130861 31.85829096 68.15234375 39.38964844 C69.10447754 39.94080322 70.05661133 40.49195801 71.03759766 41.05981445 C93.12691229 53.92088621 108.81779401 67.30679487 115.671875 93.06152344 C117.51269692 102.64968942 117.34746568 112.23063521 117.32495117 121.94628906 C117.32470869 123.67057801 117.32498731 125.39486709 117.32574463 127.11915588 C117.32684712 130.82182766 117.3254272 134.52448699 117.32237816 138.22715759 C117.31872317 144.1072341 117.32793308 149.9872471 117.34016418 155.86730957 C117.34218611 156.86356779 117.34420804 157.859826 117.34629124 158.88627386 C117.35045984 160.92328651 117.3546626 162.96029908 117.35889876 164.99731159 C117.38692252 178.67191065 117.40726033 192.34637141 117.38989258 206.02099609 C117.37825114 215.26296692 117.38817593 224.50465037 117.42195016 233.74657011 C117.43893637 238.62169054 117.44565256 243.49629307 117.42583275 248.37141418 C117.34726244 269.32095836 117.59158663 288.77558731 124.21484375 308.88964844 C124.68473252 310.3359388 124.68473252 310.3359388 125.164114 311.81144714 C132.25949431 333.38901962 142.1313128 354.08729996 153.21484375 373.88964844 C153.86404785 375.05367188 153.86404785 375.05367188 154.52636719 376.24121094 C160.6429061 387.07137187 167.40273373 396.12718411 176.21484375 404.88964844 C176.92382812 405.63472656 177.6328125 406.37980469 178.36328125 407.14746094 C210.89061547 441.00244145 257.54804522 464.40675362 298.38574219 486.36181641 C301.23486255 487.90045942 304.07296028 489.45804896 306.91015625 491.01855469 C322.66836313 499.6305834 338.68262836 507.71777475 354.74346924 515.74775314 C356.49559605 516.62377533 358.24743451 517.50037418 359.99926758 518.37698364 C379.54320441 528.14807825 399.20897228 537.64128731 419.00708008 546.88574219 C430.90232607 552.4410047 442.76499031 558.05752131 454.52734375 563.88964844 C456.02648315 564.62610596 456.02648315 564.62610596 457.5559082 565.37744141 C463.89131623 568.54754782 469.89890098 572.09112007 475.90454102 575.84570312 C481.36167691 579.21520985 486.94704796 582.35486048 492.52734375 585.51464844 C495.00094012 586.92055163 497.47329694 588.32862409 499.9453125 589.73730469 C500.56092041 590.08798508 501.17652832 590.43866547 501.81079102 590.79997253 C507.67648676 594.14527035 513.51183851 597.54164282 519.33984375 600.95214844 C530.84345065 607.68193524 542.38407894 614.34620669 553.93261719 620.99853516 C557.19658702 622.8791295 560.45978564 624.76105389 563.72265625 626.64355469 C564.79499512 627.26222412 565.86733398 627.88089355 566.97216797 628.51831055 C569.12765873 629.76223742 571.28293351 631.00653864 573.43798828 632.2512207 C578.99817707 635.46167287 584.56322046 638.66329875 590.13671875 641.85058594 C639.40222358 670.05821503 639.40222358 670.05821503 646.98277378 696.57596779 C649.11263386 705.02539055 649.64889137 712.93121755 649.61889648 721.62158203 C649.62461579 723.04742461 649.63158599 724.47326263 649.63969421 725.89909363 C649.65746957 729.73192073 649.65648698 733.56451697 649.65075183 737.39737272 C649.64763688 740.61512758 649.65377787 743.83283954 649.65979058 747.05058825 C649.67378316 754.65095011 649.67231889 762.25119944 649.66088867 769.8515625 C649.64941492 777.65252041 649.66348259 785.45313421 649.69028515 793.2540468 C649.71254615 799.98911921 649.71905619 806.72408443 649.71320873 813.45919096 C649.7098624 817.46529304 649.71209727 821.47117474 649.72945976 825.47724533 C649.74509391 829.24828276 649.74079441 833.01881628 649.72215462 836.78983498 C649.71679899 838.80621283 649.73085675 840.82261425 649.74584961 842.83894348 C649.60574256 860.48690776 643.93359902 876.53980303 632.21484375 889.88964844 C631.35826172 890.88738281 631.35826172 890.88738281 630.484375 891.90527344 C620.46704371 902.75560242 606.05842159 909.31505909 593.3359375 916.44042969 C587.31957027 919.81691345 581.35537967 923.27798237 575.40234375 926.76464844 C564.90173499 932.91109598 554.37202498 939.00529462 543.828125 945.07714844 C539.32072309 947.67311158 534.81871524 950.27812337 530.3203125 952.88964844 C524.88719168 956.04258775 519.44472312 959.17860821 513.9921875 962.29785156 C512.28101301 963.278588 510.57215354 964.26339258 508.8671875 965.25488281 C491.4662805 975.35391388 472.7616636 979.04795463 452.83984375 974.88964844 C437.10927357 970.00161815 422.7300103 960.11046593 408.62597656 951.87744141 C403.16646906 948.69598492 397.69011434 945.5438714 392.21484375 942.38964844 C390.04809031 941.13979886 387.88142377 939.88979861 385.71484375 938.63964844 C384.64234375 938.02089844 383.56984375 937.40214844 382.46484375 936.76464844 C379.21484375 934.88964844 375.96484375 933.01464844 372.71484375 931.13964844 C371.64105469 930.52025391 370.56726563 929.90085937 369.4609375 929.26269531 C367.3069443 928.01980754 365.15329503 926.77632351 363 925.53222656 C357.98309905 922.6345862 352.96327161 919.74251962 347.93041992 916.87268066 C346.16368551 915.86486821 344.39808873 914.85509064 342.6328125 913.84472656 C340.42930666 912.58432122 338.22372684 911.32753146 336.015625 910.07519531 C314.4911118 897.74200753 299.99121132 883.81956804 292.7578125 859.40136719 C291.43366622 853.27599987 291.06827163 847.20930205 291.090271 840.95863342 C291.08886085 840.20172933 291.0874507 839.44482523 291.08599782 838.66498464 C291.08237284 836.15009102 291.08566936 833.63525479 291.08886719 831.12036133 C291.08747082 829.30755062 291.08557047 827.49474024 291.08320618 825.68193054 C291.07872049 821.78498638 291.07685333 817.88805271 291.07674408 813.99110603 C291.0755977 807.80446367 291.06271203 801.61788018 291.04718018 795.43125916 C291.04460732 794.38373523 291.04203447 793.33621131 291.03938365 792.25694424 C291.034117 790.11487893 291.02883152 787.97281366 291.02352762 785.83074844 C290.98855308 771.43997241 290.96185312 757.0492694 290.96435547 742.65844727 C290.96595494 732.93710738 290.94965301 723.21596913 290.91364884 713.4946937 C290.89535861 708.36476263 290.88569499 703.23516738 290.89812469 698.10521126 C290.94453806 676.83406736 290.90012701 656.55794143 285.21484375 635.88964844 C284.85653599 634.53667758 284.85653599 634.53667758 284.49098969 633.15637398 C280.88920751 619.60246724 275.8508873 606.71953796 270.21484375 593.88964844 C269.80685547 592.95846191 269.39886719 592.02727539 268.97851562 591.06787109 C264.09091742 580.04400424 259.09907483 570.10268251 251.21484375 560.88964844 C250.60898437 560.14714844 250.003125 559.40464844 249.37890625 558.63964844 C245.38818387 553.87245066 240.98675744 549.85747589 236.21484375 545.88964844 C235.22097656 545.02339844 234.22710937 544.15714844 233.203125 543.26464844 C212.58140698 525.61006319 188.61414837 511.49501731 165.21484375 497.88964844 C164.33634766 497.3753125 163.45785156 496.86097656 162.55273438 496.33105469 C152.05785327 490.19509535 141.4242699 484.32971748 130.71484375 478.57714844 C129.70381592 478.03380859 128.69278809 477.49046875 127.65112305 476.93066406 C106.0372738 465.39802973 84.19564738 454.30486712 62.25777054 443.4040947 C58.3661604 441.47024399 54.47679368 439.53190773 50.58773804 437.59292603 C39.5547604 432.09282312 28.51991671 426.59648621 17.48095703 421.10839844 C11.32549042 418.04812307 5.17230772 414.98330268 -0.97854006 411.91375411 C-4.19932301 410.3066832 -7.42112192 408.70174348 -10.64585495 407.10261154 C-30.43353285 397.28790439 -49.73972197 386.82581561 -68.62890625 375.37402344 C-77.45466256 370.06255517 -86.42861775 364.9958288 -95.35791016 359.86132812 C-100.83671422 356.70939611 -106.31076738 353.54924047 -111.78515625 350.38964844 C-113.95179851 349.13960613 -116.11846522 347.8896062 -118.28515625 346.63964844 C-124.78515625 342.88964844 -124.78515625 342.88964844 -131.28515625 339.13964844 C-132.35781738 338.52081787 -133.43047852 337.9019873 -134.53564453 337.2644043 C-136.70072696 336.01529326 -138.86576607 334.76610714 -141.03076172 333.5168457 C-146.47131331 330.37762534 -151.91262841 327.23974281 -157.35546875 324.10449219 C-168.17879792 317.86836919 -178.99336976 311.61773242 -189.78515625 305.32714844 C-190.74566895 304.76761475 -191.70618164 304.20808105 -192.69580078 303.6315918 C-195.39522317 302.05593985 -198.09115991 300.47455765 -200.78515625 298.88964844 C-202.13347534 298.09880859 -202.13347534 298.09880859 -203.5090332 297.29199219 C-221.90152954 286.4038249 -234.28517731 271.7398511 -239.78515625 250.88964844 C-240.67325948 247.104579 -240.9148818 243.59814648 -240.92559814 239.71250916 C-240.93130829 238.4692688 -240.93701843 237.22602844 -240.94290161 235.94511414 C-240.94414683 234.57498179 -240.94527196 233.20484933 -240.94628906 231.8347168 C-240.95092074 230.3854866 -240.95594587 228.93625761 -240.96133423 227.48703003 C-240.97443031 223.55482806 -240.98089823 219.62264314 -240.98534489 215.69042277 C-240.98828134 213.2294147 -240.99238732 210.76841122 -240.99684906 208.30740547 C-241.01051933 200.59522681 -241.02018715 192.88305874 -241.02405095 185.17086881 C-241.02852463 176.29178225 -241.04604232 167.41285017 -241.07505155 158.53381056 C-241.09673495 151.65629356 -241.10675884 144.7788198 -241.10809207 137.90126902 C-241.10913574 133.80071061 -241.11494907 129.7002975 -241.13291168 125.59977531 C-241.149507 121.73620329 -241.15149294 117.87288397 -241.14277267 114.00928879 C-241.14200827 112.60010535 -241.14626519 111.19090767 -241.15623093 109.78175926 C-241.23416517 98.06381402 -239.64481577 87.39981003 -234.28515625 76.88964844 C-233.94621338 76.21885254 -233.60727051 75.54805664 -233.25805664 74.85693359 C-229.51516622 67.83222739 -224.56212969 62.3371978 -218.78515625 56.88964844 C-218.2842749 56.41422607 -217.78339355 55.93880371 -217.26733398 55.44897461 C-212.31144821 50.95464842 -206.77183787 47.74422922 -200.97265625 44.45214844 C-199.92513184 43.84943115 -198.87760742 43.24671387 -197.79833984 42.62573242 C-195.58229558 41.35131789 -193.36448362 40.07997279 -191.14501953 38.81152344 C-186.80019123 36.32623871 -182.4673309 33.82050203 -178.1340332 31.31518555 C-173.78087664 28.79955225 -169.42403568 26.29033351 -165.06738281 23.78076172 C-160.72000525 21.27594272 -156.37409236 18.76858954 -152.02832031 16.26098633 C-149.87152746 15.01649542 -147.71462694 13.7721911 -145.55761719 12.52807617 C-140.01471191 9.33098667 -134.47311344 6.13166343 -128.93359375 2.92871094 C-123.50035321 -0.21234478 -118.06320946 -3.34653529 -112.62304688 -6.47558594 C-110.08555506 -7.93730696 -107.55224476 -9.40600097 -105.01953125 -10.87597656 C-65.35536746 -33.74931255 -36.65562502 -21.63668931 0 0 Z " fill="#FFFFFF" transform="translate(240.78515625,24.1103515625)"/>
<path d="M0 0 C2.10894686 1.24942088 4.21833737 2.49809314 6.328125 3.74609375 C7.94557617 4.70684814 7.94557617 4.70684814 9.59570312 5.68701172 C14.95591953 8.85477511 20.35302537 11.9579158 25.75 15.0625 C27.93494605 16.32152744 30.11984166 17.58064242 32.3046875 18.83984375 C33.38975586 19.46487793 34.47482422 20.08991211 35.59277344 20.73388672 C42.09804575 24.4820152 48.60089956 28.23434321 55.10253906 31.98876953 C60.63884118 35.18497657 66.17911586 38.37395082 71.7265625 41.55078125 C124.44007731 71.76444101 124.44007731 71.76444101 131.875 97.625 C134.24249077 107.43976933 135.31390764 116.62388402 135.26318359 126.74194336 C135.26726466 128.07778854 135.27261501 129.41363034 135.27911377 130.74946594 C135.29261257 134.32813694 135.28756189 137.90654405 135.27797651 141.48521876 C135.2702865 145.26265885 135.27745121 149.040079 135.28213501 152.81752014 C135.28756642 159.15760276 135.2804709 165.49757994 135.26611328 171.83764648 C135.24979887 179.12507682 135.25507704 186.4122551 135.2715925 193.69967932 C135.28529099 200.00083828 135.28708633 206.30192222 135.27927649 212.6030913 C135.27464462 216.34702298 135.273849 220.09083697 135.28388596 223.83476067 C135.3477317 251.45708398 133.76283331 274.1499944 114.12963867 295.4050293 C107.20152654 302.2266128 98.26969292 306.86390737 89.875 311.625 C88.15184761 312.61064316 86.42869952 313.59629392 84.70581055 314.58239746 C82.9322918 315.59672873 81.15763779 316.60905066 79.3828125 317.62109375 C73.86818413 320.76817736 68.37273838 323.94853822 62.875 327.125 C60.71103531 328.37386741 58.54697254 329.62256489 56.3828125 330.87109375 C55.31063477 331.48968262 54.23845703 332.10827148 53.13378906 332.74560547 C49.85800434 334.63480166 46.58144107 336.52264109 43.3046875 338.41015625 C33.63292682 343.98310385 23.96542702 349.56222226 14.33081055 355.19921875 C11.32372904 356.95690424 8.31256839 358.7074245 5.30078125 360.45703125 C1.98754118 362.38317273 -1.30692491 364.3340251 -4.58203125 366.32421875 C-22.75700809 377.23575833 -42.19668122 381.0661521 -63.125 376.0625 C-75.01758449 372.32817642 -85.57077222 365.88967884 -96.20703125 359.54296875 C-101.95863018 356.11630689 -107.76054776 352.77796583 -113.5625 349.4375 C-114.66883789 348.80005859 -115.77517578 348.16261719 -116.91503906 347.50585938 C-119.18655677 346.19720371 -121.45820497 344.88877451 -123.72998047 343.58056641 C-130.27406756 339.81110448 -136.81494817 336.03607898 -143.35522461 332.26000977 C-148.86820724 329.0777325 -154.38431125 325.90108959 -159.90625 322.734375 C-165.3447677 319.61424261 -170.77222561 316.47564179 -176.19238281 313.32373047 C-178.06274261 312.24031693 -179.93674244 311.16314654 -181.81542969 310.09423828 C-202.56314985 298.28950095 -215.66319246 284.14265147 -222.125 260.625 C-223.00733071 256.8755458 -223.25663056 253.40043058 -223.27217102 249.55070496 C-223.27932632 248.33007355 -223.28648163 247.10944214 -223.29385376 245.8518219 C-223.29669375 244.50692775 -223.29940551 243.16203332 -223.30200195 241.81713867 C-223.30827201 240.39410234 -223.31491929 238.97106762 -223.32191467 237.54803467 C-223.34290805 232.87969084 -223.35331854 228.21134691 -223.36328125 223.54296875 C-223.36733177 221.92960404 -223.37144878 220.31623951 -223.37563133 218.70287514 C-223.39467941 211.11456436 -223.40890642 203.52626323 -223.4172433 195.93793315 C-223.42698867 187.21392006 -223.45323876 178.49016253 -223.49374419 169.76623935 C-223.52405648 163.00246043 -223.53872673 156.23875409 -223.54202431 149.47490865 C-223.5443593 145.44570862 -223.55311351 141.41678165 -223.57848549 137.38765526 C-223.60203487 133.5863952 -223.60589374 129.78558271 -223.59572411 125.98426819 C-223.59500479 123.95247007 -223.61390927 121.9206933 -223.63378906 119.88899231 C-223.52506262 100.29063705 -217.0639341 82.72531105 -203.125 68.625 C-196.32203022 62.61404846 -189.02828641 57.98216444 -181.125 53.5625 C-179.40177568 52.58370858 -177.67855908 51.60490326 -175.95581055 50.62527466 C-174.1829417 49.6185052 -172.40803899 48.6153983 -170.6328125 47.61279297 C-165.10839432 44.48814879 -159.61887613 41.3029203 -154.125 38.125 C-151.95849069 36.87472729 -149.79182363 35.62472789 -147.625 34.375 C-146.5525 33.75625 -145.48 33.1375 -144.375 32.5 C-141.125 30.625 -137.875 28.75 -134.625 26.875 C-133.55169434 26.2557666 -132.47838867 25.6365332 -131.37255859 24.99853516 C-129.21409502 23.75330516 -127.05556677 22.50818728 -124.89697266 21.26318359 C-119.35425259 18.06613663 -113.81279992 14.86692405 -108.2734375 11.6640625 C-102.84199671 8.52388319 -97.40587593 5.39193713 -91.96728516 2.26416016 C-89.41484137 0.79215297 -86.86871164 -0.69009248 -84.32421875 -2.17578125 C-55.53194251 -18.87635492 -28.2473141 -16.99806361 0 0 Z " fill="#FFFFFF" transform="translate(223.125,622.375)"/>
<path d="M0 0 C0.71494629 0.25813477 1.42989258 0.51626953 2.16650391 0.78222656 C8.82785446 3.29579539 14.78262483 6.58962845 20.875 10.25 C22.99664266 11.50648098 25.11907126 12.76163558 27.2421875 14.015625 C28.34530273 14.66853516 29.44841797 15.32144531 30.58496094 15.99414062 C35.77217333 19.04090478 40.99862424 22.0177354 46.22766113 24.99185181 C56.53611628 30.85554448 66.80746512 36.77949804 77.04272461 42.77026367 C83.40338095 46.49146759 89.77964178 50.18429067 96.16748047 53.85864258 C100.50489131 56.35485277 104.83690666 58.86033703 109.16845703 61.36669922 C111.64754919 62.79669806 114.13312584 64.21444115 116.62109375 65.62890625 C124.20337677 69.98646618 130.81892298 74.75305004 137 81 C137.69480469 81.66128906 138.38960937 82.32257813 139.10546875 83.00390625 C143.47970414 87.46274968 146.48416581 92.29365575 149.3125 97.8125 C149.63814941 98.43970947 149.96379883 99.06691895 150.29931641 99.71313477 C155.47591462 110.36109848 156.44634616 121.11194784 156.40405273 132.80200195 C156.40977002 134.24740115 156.41673947 135.69279585 156.42485046 137.13818359 C156.44264976 141.02891818 156.4416384 144.91942561 156.43590808 148.81018853 C156.43279613 152.07511425 156.43893098 155.33999758 156.44494683 158.60491723 C156.45894778 166.31697031 156.45746857 174.02891252 156.44604492 181.7409668 C156.43457521 189.65834963 156.44863012 197.57539325 156.4754414 205.49273139 C156.49770088 212.32544704 156.50421264 219.15805701 156.49836498 225.99080628 C156.49501771 230.05616683 156.49725977 234.12131023 156.51461601 238.18663979 C156.53024719 242.01429495 156.52595378 245.84145358 156.50731087 249.66909027 C156.50366879 251.06088615 156.50660272 252.45272019 156.51719666 253.84448051 C156.65427974 273.36861444 150.45095053 290.56631869 137 305 C129.90320578 311.46004142 122.30182551 316.47693698 113.9375 321.125 C112.2230775 322.0959644 110.50866423 323.06694553 108.7947998 324.03889465 C107.03179041 325.03706189 105.26635833 326.03082972 103.50048828 327.02392578 C97.93361068 330.15979015 92.40631664 333.36447966 86.875 336.5625 C85.79855225 337.18334473 84.72210449 337.80418945 83.61303711 338.44384766 C76.39590811 342.60747153 69.19409654 346.79672761 62 351 C50.34131709 357.80926553 38.66596419 364.58855347 26.95166016 371.30175781 C24.25584592 372.85279866 21.57035641 374.42021335 18.88671875 375.9921875 C-0.36718779 387.15017672 -19.72244051 392.4321018 -41.94677734 386.66577148 C-51.19226005 383.6678605 -59.69398447 378.55017399 -68.125 373.8125 C-69.33057396 373.13853979 -70.53622267 372.4647133 -71.74194336 371.79101562 C-79.39924567 367.50351477 -86.99531719 363.12085877 -94.5390625 358.63671875 C-100.14245991 355.31124111 -105.79162819 352.06515294 -111.4375 348.8125 C-112.54198486 348.17586426 -113.64646973 347.53922852 -114.78442383 346.88330078 C-120.41340883 343.63969921 -126.04425334 340.39934025 -131.67578125 337.16015625 C-136.02501237 334.65819823 -140.36958544 332.14841471 -144.7109375 329.6328125 C-148.82717023 327.24785989 -152.95775606 324.89135998 -157.1015625 322.5546875 C-178.86071516 310.17601044 -193.2449304 296.18807491 -200.203125 271.4921875 C-202.06803863 263.31947775 -202.14841081 255.3621314 -202.14526367 247.01318359 C-202.14862228 245.72752502 -202.1519809 244.44186646 -202.15544128 243.11724854 C-202.16422999 239.60862487 -202.1666173 236.10002565 -202.16725707 232.59139204 C-202.16797078 230.39216964 -202.17011122 228.19295333 -202.17275429 225.99373245 C-202.18199257 218.30066793 -202.1860913 210.60762067 -202.18530273 202.91455078 C-202.18470318 195.77781095 -202.19523478 188.64114701 -202.2110464 181.50442636 C-202.22418807 175.35037809 -202.22948383 169.19635441 -202.22884732 163.04229224 C-202.22859417 159.37881841 -202.23134312 155.71541203 -202.24202538 152.05195236 C-202.25364454 147.95564472 -202.2489193 143.85950338 -202.24291992 139.76318359 C-202.24853943 138.57308685 -202.25415894 137.38299011 -202.25994873 136.15682983 C-202.18550553 116.00979976 -197.39565699 96.1137476 -183.14404297 81.04882812 C-175.06497489 73.32854353 -165.46328071 67.70092431 -155.75 62.3125 C-153.89353711 61.26941406 -152.0388537 60.22320805 -150.18417358 59.17695618 C-148.93327835 58.47162529 -147.68183493 57.76726571 -146.42984009 57.06388855 C-140.54017302 53.75321248 -134.703223 50.35508652 -128.875 46.9375 C-117.39244709 40.21851822 -105.87176147 33.56688447 -94.34375 26.92626953 C-89.73222575 24.26965984 -85.1214786 21.61170443 -80.51123047 18.95288086 C-78.33335118 17.69687102 -76.15530494 16.44115061 -73.97705078 15.18579102 C-72.97657715 14.60885498 -71.97610352 14.03191895 -70.9453125 13.4375 C-69.96667236 12.87434082 -68.98803223 12.31118164 -67.97973633 11.73095703 C-65.92474276 10.53719182 -63.87813722 9.32890964 -61.83862305 8.10888672 C-56.50212752 4.92787442 -51.45643035 2.10099977 -45.5625 0.125 C-44.42941406 -0.26429687 -43.29632812 -0.65359375 -42.12890625 -1.0546875 C-29.18958134 -4.96394671 -12.65961267 -4.68615497 0 0 Z " fill="#FFFFFF" transform="translate(734,3)"/>
</svg>
